<svg xmlns="http://www.w3.org/2000/svg" width="800" height="560" viewBox="0 0 800 560" role="img">
  <rect width="800" height="560" fill="#EEF2F7"/>
  <circle cx="660" cy="72" r="38" fill="#FFFFFF" opacity="0.55"/>
  <rect x="-20" y="126" width="100" height="379" fill="#C8D4E3"/><rect x="88" y="272" width="97" height="233" fill="#C8D4E3"/><rect x="194" y="247" width="122" height="258" fill="#C8D4E3"/><rect x="324" y="217" width="64" height="288" fill="#C8D4E3"/><rect x="395" y="146" width="81" height="359" fill="#C8D4E3"/><rect x="485" y="276" width="121" height="229" fill="#C8D4E3"/><rect x="614" y="162" width="112" height="343" fill="#C8D4E3"/><rect x="734" y="232" width="64" height="273" fill="#C8D4E3"/>
  <rect x="0" y="505" width="800" height="55" fill="#1E3A5F" opacity="0.08"/>
  <rect x="546" y="226" width="135" height="279" fill="#1E3A5F" opacity="0.75"/>
  <rect x="567.1" y="259.3" width="24.0" height="22.3" rx="1.5" fill="#7FB2D9" opacity="0.75"/><rect x="567.1" y="296.5" width="24.0" height="22.3" rx="1.5" fill="#7FB2D9" opacity="0.75"/><rect x="567.1" y="333.8" width="24.0" height="22.3" rx="1.5" fill="#7FB2D9" opacity="0.75"/><rect x="567.1" y="371.0" width="24.0" height="22.3" rx="1.5" fill="#7FB2D9" opacity="0.75"/><rect x="567.1" y="408.2" width="24.0" height="22.3" rx="1.5" fill="#7FB2D9" opacity="0.75"/><rect x="567.1" y="445.4" width="24.0" height="22.3" rx="1.5" fill="#7FB2D9" opacity="0.75"/><rect x="601.4" y="259.3" width="24.0" height="22.3" rx="1.5" fill="#7FB2D9" opacity="0.75"/><rect x="601.4" y="296.5" width="24.0" height="22.3" rx="1.5" fill="#7FB2D9" opacity="0.75"/><rect x="601.4" y="333.8" width="24.0" height="22.3" rx="1.5" fill="#7FB2D9" opacity="0.75"/><rect x="601.4" y="371.0" width="24.0" height="22.3" rx="1.5" fill="#7FB2D9" opacity="0.75"/><rect x="601.4" y="408.2" width="24.0" height="22.3" rx="1.5" fill="#7FB2D9" opacity="0.75"/><rect x="601.4" y="445.4" width="24.0" height="22.3" rx="1.5" fill="#7FB2D9" opacity="0.75"/><rect x="635.7" y="259.3" width="24.0" height="22.3" rx="1.5" fill="#7FB2D9" opacity="0.75"/><rect x="635.7" y="296.5" width="24.0" height="22.3" rx="1.5" fill="#7FB2D9" opacity="0.75"/><rect x="635.7" y="333.8" width="24.0" height="22.3" rx="1.5" fill="#7FB2D9" opacity="0.75"/><rect x="635.7" y="371.0" width="24.0" height="22.3" rx="1.5" fill="#7FB2D9" opacity="0.75"/><rect x="635.7" y="408.2" width="24.0" height="22.3" rx="1.5" fill="#7FB2D9" opacity="0.75"/><rect x="635.7" y="445.4" width="24.0" height="22.3" rx="1.5" fill="#7FB2D9" opacity="0.75"/>
  <rect x="207" y="96" width="327" height="409" fill="#1E3A5F"/>
  <rect x="255.5" y="144.7" width="43.5" height="32.8" rx="1.5" fill="#7FB2D9" opacity="0.9"/><rect x="255.5" y="199.3" width="43.5" height="32.8" rx="1.5" fill="#7FB2D9" opacity="0.9"/><rect x="255.5" y="253.9" width="43.5" height="32.8" rx="1.5" fill="#7FB2D9" opacity="0.9"/><rect x="255.5" y="308.5" width="43.5" height="32.8" rx="1.5" fill="#7FB2D9" opacity="0.9"/><rect x="255.5" y="363.1" width="43.5" height="32.8" rx="1.5" fill="#7FB2D9" opacity="0.9"/><rect x="255.5" y="417.6" width="43.5" height="32.8" rx="1.5" fill="#7FB2D9" opacity="0.9"/><rect x="317.6" y="144.7" width="43.5" height="32.8" rx="1.5" fill="#7FB2D9" opacity="0.9"/><rect x="317.6" y="199.3" width="43.5" height="32.8" rx="1.5" fill="#7FB2D9" opacity="0.9"/><rect x="317.6" y="253.9" width="43.5" height="32.8" rx="1.5" fill="#7FB2D9" opacity="0.9"/><rect x="317.6" y="308.5" width="43.5" height="32.8" rx="1.5" fill="#7FB2D9" opacity="0.9"/><rect x="317.6" y="363.1" width="43.5" height="32.8" rx="1.5" fill="#7FB2D9" opacity="0.9"/><rect x="317.6" y="417.6" width="43.5" height="32.8" rx="1.5" fill="#7FB2D9" opacity="0.9"/><rect x="379.7" y="144.7" width="43.5" height="32.8" rx="1.5" fill="#7FB2D9" opacity="0.9"/><rect x="379.7" y="199.3" width="43.5" height="32.8" rx="1.5" fill="#7FB2D9" opacity="0.9"/><rect x="379.7" y="253.9" width="43.5" height="32.8" rx="1.5" fill="#7FB2D9" opacity="0.9"/><rect x="379.7" y="308.5" width="43.5" height="32.8" rx="1.5" fill="#7FB2D9" opacity="0.9"/><rect x="379.7" y="363.1" width="43.5" height="32.8" rx="1.5" fill="#7FB2D9" opacity="0.9"/><rect x="379.7" y="417.6" width="43.5" height="32.8" rx="1.5" fill="#7FB2D9" opacity="0.9"/><rect x="441.7" y="144.7" width="43.5" height="32.8" rx="1.5" fill="#7FB2D9" opacity="0.9"/><rect x="441.7" y="199.3" width="43.5" height="32.8" rx="1.5" fill="#7FB2D9" opacity="0.9"/><rect x="441.7" y="253.9" width="43.5" height="32.8" rx="1.5" fill="#7FB2D9" opacity="0.9"/><rect x="441.7" y="308.5" width="43.5" height="32.8" rx="1.5" fill="#7FB2D9" opacity="0.9"/><rect x="441.7" y="363.1" width="43.5" height="32.8" rx="1.5" fill="#7FB2D9" opacity="0.9"/><rect x="441.7" y="417.6" width="43.5" height="32.8" rx="1.5" fill="#7FB2D9" opacity="0.9"/>
  <rect x="207" y="86" width="327" height="10" fill="#0F9D77"/>
  <rect x="338" y="459" width="65" height="46" fill="#0F9D77" opacity="0.85"/>
  <rect x="0" y="505" width="800" height="3" fill="#1E3A5F" opacity="0.35"/>
</svg>