<svg xmlns="http://www.w3.org/2000/svg" width="800" height="560" viewBox="0 0 800 560" role="img">
  <rect width="800" height="560" fill="#EEF2F7"/>
  <circle cx="660" cy="72" r="38" fill="#FFFFFF" opacity="0.55"/>
  <rect x="-20" y="169" width="101" height="336" fill="#C8D4E3"/><rect x="89" y="143" width="118" height="362" fill="#C8D4E3"/><rect x="215" y="214" width="79" height="291" fill="#C8D4E3"/><rect x="302" y="252" width="76" height="253" fill="#C8D4E3"/><rect x="385" y="240" width="74" height="265" fill="#C8D4E3"/><rect x="467" y="192" width="128" height="313" fill="#C8D4E3"/><rect x="603" y="125" width="88" height="380" fill="#C8D4E3"/><rect x="699" y="107" width="122" height="398" fill="#C8D4E3"/>
  <rect x="0" y="505" width="800" height="55" fill="#1E3A5F" opacity="0.08"/>
  <rect x="497" y="260" width="144" height="245" fill="#1E3A5F" opacity="0.75"/>
  <rect x="519.5" y="289.0" width="25.6" height="19.6" rx="1.5" fill="#7FB2D9" opacity="0.75"/><rect x="519.5" y="321.7" width="25.6" height="19.6" rx="1.5" fill="#7FB2D9" opacity="0.75"/><rect x="519.5" y="354.4" width="25.6" height="19.6" rx="1.5" fill="#7FB2D9" opacity="0.75"/><rect x="519.5" y="387.2" width="25.6" height="19.6" rx="1.5" fill="#7FB2D9" opacity="0.75"/><rect x="519.5" y="419.9" width="25.6" height="19.6" rx="1.5" fill="#7FB2D9" opacity="0.75"/><rect x="519.5" y="452.6" width="25.6" height="19.6" rx="1.5" fill="#7FB2D9" opacity="0.75"/><rect x="556.1" y="289.0" width="25.6" height="19.6" rx="1.5" fill="#7FB2D9" opacity="0.75"/><rect x="556.1" y="321.7" width="25.6" height="19.6" rx="1.5" fill="#7FB2D9" opacity="0.75"/><rect x="556.1" y="354.4" width="25.6" height="19.6" rx="1.5" fill="#7FB2D9" opacity="0.75"/><rect x="556.1" y="387.2" width="25.6" height="19.6" rx="1.5" fill="#7FB2D9" opacity="0.75"/><rect x="556.1" y="419.9" width="25.6" height="19.6" rx="1.5" fill="#7FB2D9" opacity="0.75"/><rect x="556.1" y="452.6" width="25.6" height="19.6" rx="1.5" fill="#7FB2D9" opacity="0.75"/><rect x="592.7" y="289.0" width="25.6" height="19.6" rx="1.5" fill="#7FB2D9" opacity="0.75"/><rect x="592.7" y="321.7" width="25.6" height="19.6" rx="1.5" fill="#7FB2D9" opacity="0.75"/><rect x="592.7" y="354.4" width="25.6" height="19.6" rx="1.5" fill="#7FB2D9" opacity="0.75"/><rect x="592.7" y="387.2" width="25.6" height="19.6" rx="1.5" fill="#7FB2D9" opacity="0.75"/><rect x="592.7" y="419.9" width="25.6" height="19.6" rx="1.5" fill="#7FB2D9" opacity="0.75"/><rect x="592.7" y="452.6" width="25.6" height="19.6" rx="1.5" fill="#7FB2D9" opacity="0.75"/>
  <rect x="146" y="92" width="339" height="413" fill="#1E3A5F"/>
  <rect x="195.9" y="141.1" width="45.1" height="33.1" rx="1.5" fill="#7FB2D9" opacity="0.9"/><rect x="195.9" y="196.3" width="45.1" height="33.1" rx="1.5" fill="#7FB2D9" opacity="0.9"/><rect x="195.9" y="251.4" width="45.1" height="33.1" rx="1.5" fill="#7FB2D9" opacity="0.9"/><rect x="195.9" y="306.5" width="45.1" height="33.1" rx="1.5" fill="#7FB2D9" opacity="0.9"/><rect x="195.9" y="361.7" width="45.1" height="33.1" rx="1.5" fill="#7FB2D9" opacity="0.9"/><rect x="195.9" y="416.8" width="45.1" height="33.1" rx="1.5" fill="#7FB2D9" opacity="0.9"/><rect x="260.3" y="141.1" width="45.1" height="33.1" rx="1.5" fill="#7FB2D9" opacity="0.9"/><rect x="260.3" y="196.3" width="45.1" height="33.1" rx="1.5" fill="#7FB2D9" opacity="0.9"/><rect x="260.3" y="251.4" width="45.1" height="33.1" rx="1.5" fill="#7FB2D9" opacity="0.9"/><rect x="260.3" y="306.5" width="45.1" height="33.1" rx="1.5" fill="#7FB2D9" opacity="0.9"/><rect x="260.3" y="361.7" width="45.1" height="33.1" rx="1.5" fill="#7FB2D9" opacity="0.9"/><rect x="260.3" y="416.8" width="45.1" height="33.1" rx="1.5" fill="#7FB2D9" opacity="0.9"/><rect x="324.8" y="141.1" width="45.1" height="33.1" rx="1.5" fill="#7FB2D9" opacity="0.9"/><rect x="324.8" y="196.3" width="45.1" height="33.1" rx="1.5" fill="#7FB2D9" opacity="0.9"/><rect x="324.8" y="251.4" width="45.1" height="33.1" rx="1.5" fill="#7FB2D9" opacity="0.9"/><rect x="324.8" y="306.5" width="45.1" height="33.1" rx="1.5" fill="#7FB2D9" opacity="0.9"/><rect x="324.8" y="361.7" width="45.1" height="33.1" rx="1.5" fill="#7FB2D9" opacity="0.9"/><rect x="324.8" y="416.8" width="45.1" height="33.1" rx="1.5" fill="#7FB2D9" opacity="0.9"/><rect x="389.2" y="141.1" width="45.1" height="33.1" rx="1.5" fill="#7FB2D9" opacity="0.9"/><rect x="389.2" y="196.3" width="45.1" height="33.1" rx="1.5" fill="#7FB2D9" opacity="0.9"/><rect x="389.2" y="251.4" width="45.1" height="33.1" rx="1.5" fill="#7FB2D9" opacity="0.9"/><rect x="389.2" y="306.5" width="45.1" height="33.1" rx="1.5" fill="#7FB2D9" opacity="0.9"/><rect x="389.2" y="361.7" width="45.1" height="33.1" rx="1.5" fill="#7FB2D9" opacity="0.9"/><rect x="389.2" y="416.8" width="45.1" height="33.1" rx="1.5" fill="#7FB2D9" opacity="0.9"/>
  <rect x="146" y="82" width="339" height="10" fill="#0F9D77"/>
  <rect x="281" y="459" width="68" height="46" fill="#0F9D77" opacity="0.85"/>
  <rect x="0" y="505" width="800" height="3" fill="#1E3A5F" opacity="0.35"/>
</svg>